#!OML:ASF E:\acrobat2\Project_11_07_03\Capture day 1\Session 1\Acrobat.ASF
:FULLY-SPECIFIED
:DEGREES
373
root 14.5045 30.013 10.8618 -121.664 -76.8197 132.321
lowerback 18.7074 0.24718 5.33334
upperback 12.6104 -0.224426 5.62631
thorax 3.2451 -0.526996 3.00221
lowerneck 0.994615 -9.30451 -7.14282
upperneck 4.81671 -13.3882 16.4225
head 2.86577 -6.5108 5.68734
rclavicle -3.18055e-015 1.43125e-014
rhumerus -11.4258 -19.995 -40.7165
rradius 42.7175
rwrist -51.1458
rhand -14.3825 -36.4106
rfingers 7.12502
rthumb 11.7603 -66.0604
lclavicle -3.18055e-015 1.43125e-014
lhumerus -66.7742 -5.3432 63.3616
lradius 6.94668
lwrist -9.66037
lhand 5.08872 -9.0836
lfingers 7.12502
lthumb 30.4546 18.4204
rfemur -67.3871 -3.4193 14.611
rtibia 118.912
rfoot 4.88528 -14.137
rtoes -26.5995
lfemur -63.4244 6.06805 -30.2685
ltibia 101.516
lfoot 19.539 -9.31874
ltoes -7.53451
374
root 14.5893 30.1648 10.9154 -122.817 -75.1796 134.036
lowerback 20.2051 0.453147 5.3365
upperback 13.1846 0.00566189 5.43774
thorax 3.13148 -0.449148 2.78141
lowerneck 0.971762 -9.67514 -7.22972
upperneck 3.24192 -13.6843 17.1342
head 2.50415 -6.7004 5.92378
rclavicle -4.45278e-014 -8.90555e-014
rhumerus -10.9787 -19.9459 -44.119
rradius 41.5875
rwrist -49.3048
rhand -14.2784 -36.5343
rfingers 7.12502
rthumb 11.8606 -66.1784
lclavicle -4.45278e-014 -8.90555e-014
lhumerus -64.6432 -2.26682 65.0226
lradius 6.24816
lwrist -11.3003
lhand 5.91794 -9.15861
lfingers 7.12502
lthumb 31.2451 18.1959
rfemur -70.2675 -5.54809 15.0921
rtibia 122.504
rfoot 3.16337 -14.9586
rtoes -23.4065
lfemur -67.1296 4.15852 -29.1127
ltibia 103.784
lfoot 19.5007 -10.3563
ltoes -7.39124
375
root 14.6693 30.3033 10.9662 -122.831 -73.2822 134.532
lowerback 21.7321 0.683263 5.01297
upperback 13.752 0.209729 5.19881
thorax 3.00478 -0.402014 2.68793
lowerneck 0.881654 -9.993 -7.30093
upperneck 1.58197 -13.8841 17.7906
head 2.11708 -6.85307 6.14838
rclavicle 0 3.33958e-014
rhumerus -10.0446 -19.9396 -47.3817
rradius 40.2461
rwrist -47.657
rhand -14.2859 -36.6576
rfingers 7.12502
rthumb 11.8535 -66.3021
lclavicle 0 3.33958e-014
lhumerus -62.3127 0.389452 66.8071
lradius 5.68853
lwrist -12.8889
lhand 6.40678 -9.20554
lfingers 7.12502
lthumb 31.7109 18.058
rfemur -73.1204 -8.07765 15.2879
rtibia 126.041
rfoot 1.17186 -15.0376
rtoes -17.4828
lfemur -70.6862 2.42047 -28.0086
ltibia 105.781
lfoot 19.5658 -11.0537
ltoes -5.95216
376
root 14.7436 30.4319 11.0104 -122.145 -71.1332 134.241
lowerback 23.284 0.930671 4.34355
upperback 14.3181 0.358646 4.8901
thorax 2.87268 -0.401952 2.71883
lowerneck 0.738628 -10.2433 -7.32734
upperneck -0.122886 -13.9787 18.397
head 1.70961 -6.96387 6.3597
rclavicle 4.13472e-014 1.90833e-014
rhumerus -8.61711 -19.7495 -50.524
rradius 38.693
rwrist -46.1211
rhand -14.2835 -36.6777
rfingers 7.12502
rthumb 11.8557 -66.322
lclavicle 4.13472e-014 1.90833e-014
lhumerus -59.7744 2.67794 68.6146
lradius 5.17942
lwrist -14.4704
lhand 6.51401 -9.45871
lfingers 7.12502
lthumb 31.813 17.7846
rfemur -75.8943 -11.1185 15.2038
rtibia 129.48
rfoot -1.05317 -14.0842
rtoes -7.48665
lfemur -74.0501 0.947458 -26.9844
ltibia 107.49
lfoot 19.6452 -11.5862
ltoes -4.12413
377
root 14.8122 30.5514 11.0489 -121.111 -68.7712 133.592
lowerback 24.7738 1.18601 3.4133
upperback 14.8743 0.438339 4.49489
thorax 2.77166 -0.449404 2.81316
lowerneck 0.546071 -10.4394 -7.30807
upperneck -1.82076 -13.9988 18.9939
head 1.30195 -7.04629 6.56737
rclavicle 6.36111e-015 4.13472e-014
rhumerus -6.79901 -19.3782 -53.5691
rradius 37.0285
rwrist -44.4331
rhand -14.1432 -36.5537
rfingers 7.12502
rthumb 11.991 -66.1903
lclavicle 6.36111e-015 4.13472e-014
lhumerus -57.0316 4.6013 70.3408
lradius 4.72251
lwrist -15.8898
lhand 6.14516 -9.86557
lfingers 7.12502
lthumb 31.4616 17.4469
rfemur -78.71 -14.7686 15.0071
rtibia 132.769
rfoot -2.87624 -11.9872
rtoes 4.67941
lfemur -77.3063 -0.207776 -26.0304
ltibia 108.927
lfoot 19.6598 -12.0292
ltoes -2.49818
378
root 14.8743 30.6619 11.0819 -119.995 -66.2728 132.895
lowerback 26.1693 1.44121 2.34375
upperback 15.4032 0.455519 4.02222
thorax 2.70186 -0.533602 2.91302
lowerneck 0.345455 -10.5963 -7.24211
upperneck -3.51583 -13.9652 19.5817
head 0.88766 -7.1132 6.7729
rclavicle 1.27222e-014 1.11319e-014
rhumerus -4.74032 -18.6778 -56.4514
rradius 35.3298
rwrist -42.5468
rhand -13.7701 -36.3392
rfingers 7.12502
rthumb 12.3508 -65.9544
lclavicle 1.27222e-014 1.11319e-014
lhumerus -54.0916 6.14796 71.9294
lradius 4.30539
lwrist -17.2368
lhand 5.4015 -10.5121
lfingers 7.12502
lthumb 30.7529 16.9362
rfemur -81.5301 -19.0318 15.0099
rtibia 135.808
rfoot -3.82663 -9.09501
rtoes 14.5276
lfemur -80.4843 -0.999063 -25.088
ltibia 110.121
lfoot 19.5308 -12.4539
ltoes -1.56581
379
root 14.9297 30.7645 11.111 -118.926 -63.6625 132.303
lowerback 27.4524 1.69518 1.22053
upperback 15.8949 0.426326 3.46874
thorax 2.66223 -0.639998 2.96343
lowerneck 0.177138 -10.7165 -7.12719
upperneck -5.19046 -13.8844 20.1546
head 0.46434 -7.16903 6.97614
rclavicle -1.90833e-014 -3.65764e-014
rhumerus -2.68928 -17.6486 -59.1086
rradius 33.7943
rwrist -40.4264
rhand -13.0995 -36.0988
rfingers 7.12502
rthumb 12.9972 -65.674
lclavicle -1.90833e-014 -3.65764e-014
lhumerus -50.9534 7.31517 73.3546
lradius 3.93184
lwrist -18.4039
lhand 4.30549 -11.2386
lfingers 7.12502
lthumb 29.7073 16.4013
rfemur -84.366 -23.7731 15.4104
rtibia 138.508
rfoot -4.01177 -5.75631
rtoes 20.3709
lfemur -83.5738 -1.40363 -24.1557
ltibia 111.089
lfoot 19.2157 -12.8338
ltoes -1.44789
380
root 14.9789 30.8609 11.1374 -117.949 -60.9547 131.866
lowerback 28.6431 1.94817 0.0983794
upperback 16.327 0.369406 2.83837
thorax 2.6163 -0.753821 2.93319
lowerneck 0.0816464 -10.7986 -6.94542
upperneck -6.81477 -13.7573 20.67
head 0.0279711 -7.21357 7.16329
rclavicle -5.725e-014 2.22639e-014
rhumerus -0.711755 -16.4919 -61.5361
rradius 32.4452
rwrist -37.9234
rhand -12.2579 -35.7662
rfingers 7.12502
rthumb 13.8084 -65.2879
lclavicle -5.725e-014 2.22639e-014
lhumerus -47.6422 8.08329 74.5996
lradius 3.60387
lwrist -19.3242
lhand 2.98665 -11.9345
lfingers 7.12502
lthumb 28.4478 15.9229
rfemur -87.2806 -28.6856 16.3303
rtibia 140.83
rfoot -3.75356 -2.28867
rtoes 22.7546
lfemur -86.5231 -1.42609 -23.2106
ltibia 111.834
lfoot 18.7901 -13.0512
ltoes -1.3543
381
root 15.0228 30.9521 11.1614 -117.045 -58.1992 131.561
lowerback 29.7764 2.18889 -0.945744
upperback 16.6761 0.295568 2.15184
thorax 2.51858 -0.862229 2.79859
lowerneck 0.0974667 -10.8383 -6.63674
upperneck -8.37637 -13.5788 21.032
head -0.439021 -7.24262 7.29831
rclavicle -1.90833e-014 9.06458e-014
rhumerus 1.09563 -15.1591 -63.6433
rradius 31.3443
rwrist -35.2592
rhand -11.418 -35.3095
rfingers 7.12502
rthumb 14.6178 -64.7744
lclavicle -1.90833e-014 9.06458e-014
lhumerus -44.1946 8.41175 75.6534
lradius 3.32109
lwrist -19.947
lhand 1.59066 -12.5536
lfingers 7.12502
lthumb 27.113 15.5192
rfemur -90.2207 -33.3378 17.8514
rtibia 142.734
rfoot -3.40399 1.01509
rtoes 22.0492
lfemur -89.2788 -1.11233 -22.2381
ltibia 112.361
lfoot 18.2848 -13.1251
ltoes -1.24422
382
root 15.0621 31.0412 11.1832 -116.161 -55.4468 131.276
lowerback 30.9289 2.39316 -1.84933
upperback 16.93 0.192986 1.43598
thorax 2.31944 -0.965496 2.55778
lowerneck 0.169007 -10.8638 -6.10293
upperneck -9.80519 -13.3989 21.0755
head -0.922844 -7.26855 7.30594
rclavicle 6.36111e-015 1.66979e-014
rhumerus 2.665 -13.6203 -65.3534
rradius 30.5539
rwrist -32.6204
rhand -10.7088 -34.7304
rfingers 7.12502
rthumb 15.301 -64.1444
lclavicle 6.36111e-015 1.66979e-014
lhumerus -40.6637 8.27644 76.5032
lradius 3.10613
lwrist -20.2013
lhand 0.211364 -13.0953
lfingers 7.12502
lthumb 25.7928 15.1762
rfemur -93.0484 -37.2963 19.8114
rtibia 144.212
rfoot -3.11559 3.98004
rtoes 19.5273
lfemur -91.7363 -0.579456 -21.2369
ltibia 112.654
lfoot 17.7205 -13.0859
ltoes -1.01345
383
root 15.0973 31.1281 11.2033 -115.236 -52.7387 130.965
lowerback 32.4725 2.54458 -2.56409
upperback 16.9465 0.0377261 0.779248
thorax 1.76776 -1.06199 2.13039
lowerneck 0.308296 -10.9182 -5.44802
upperneck -11.0978 -13.278 20.9321
head -1.39772 -7.31902 7.23855
rclavicle -2.8625e-014 1.35174e-014
rhumerus 3.96743 -11.8552 -66.6417
rradius 30.1325
rwrist -30.1684
rhand -10.1852 -34.0987
rfingers 7.12502
rthumb 15.8053 -63.4735
lclavicle -2.8625e-014 1.35174e-014
lhumerus -37.1152 7.69104 77.1187
lradius 3.01477
lwrist -20.051
lhand -1.10103 -13.5673
lfingers 7.12502
lthumb 24.5354 14.8808
rfemur -94.7891 -35.5611 20.4884
rtibia 145.307
rfoot -2.19572 4.49363
rtoes 16.4746
lfemur -93.903 0.0781698 -20.1956
ltibia 112.723
lfoot 17.1201 -12.9981
ltoes -0.636964
